<svg width="420" height="160" viewBox="0 0 420 160" fill="none" xmlns="http://www.w3.org/2000/svg">
  <!-- Background (remove if you want transparent) -->
  <rect width="420" height="160" fill="white"></rect>

  <!-- Brain cloud shape -->
  <path d="M125 75c0-18-14-33-32-33-4 0-8 1-12 2C76 32 63 25 49 25 28 25 11 42 11 63c0 2 0 5 1 7C5 74 0 83 0 93c0 18 15 33 33 33h60c18 0 32-15 32-33 0-12-7-23-17-29 1-3 2-6 2-9z" fill="#3DDAD7" stroke="#1C1C52" stroke-width="4" stroke-linecap="round" stroke-linejoin="round"></path>

  <!-- Smile -->
  <path d="M60 90c3 5 10 5 13 0" stroke="#1C1C52" stroke-width="4" stroke-linecap="round"></path>

  <!-- Eyes -->
  <circle cx="52" cy="72" r="4" fill="#1C1C52"></circle>
  <circle cx="81" cy="72" r="4" fill="#1C1C52"></circle>

  <!-- Lightbulb -->
  <circle cx="66.5" cy="37" r="15" fill="#FFBF34" stroke="#1C1C52" stroke-width="4"></circle>
  <path d="M56 37h21" stroke="#1C1C52" stroke-width="4" stroke-linecap="round"></path>
  <path d="M66 22v-6M52 27l-5-5M81 27l5-5" stroke="#FFBF34" stroke-width="4" stroke-linecap="round"></path>

  <!-- Text: Bright Minds -->
  <text x="165" y="70" font-family="Segoe UI, Helvetica, Arial" font-weight="700" font-size="42" fill="#1C1C52">Bright</text>
  <text x="165" y="115" font-family="Segoe UI, Helvetica, Arial" font-weight="700" font-size="42" fill="#1C1C52">Minds</text>
</svg>
